<svg width="162" height="162" viewBox="0 0 162 162" fill="none" xmlns="http://www.w3.org/2000/svg">
<path fill-rule="evenodd" clip-rule="evenodd" d="M20.5348 6.46066H0V0.460663H22.9213H25.3079L25.8445 2.78608L31.479 27.2022H158H161.766L160.924 30.873L144.272 103.457L143.738 105.787H141.348H47.3883C44.107 110.663 44.3169 113.884 45.1621 115.856C46.1124 118.074 48.2573 119.669 50.2137 120.471H148.989V126.471H49.6629H49.1481L48.6627 126.3C45.6363 125.229 41.552 122.665 39.6469 118.219C37.7476 113.786 38.3551 108.333 42.6144 102.139L26.1693 30.8768L20.5348 6.46066ZM48.2292 99.7865H138.959L154.234 33.2022H32.8636L48.2292 99.7865ZM55.3932 156C61.5739 156 66.5843 150.99 66.5843 144.809C66.5843 138.628 61.5739 133.618 55.3932 133.618C49.2126 133.618 44.2022 138.628 44.2022 144.809C44.2022 150.99 49.2126 156 55.3932 156ZM55.3932 162C64.8876 162 72.5843 154.303 72.5843 144.809C72.5843 135.315 64.8876 127.618 55.3932 127.618C45.8989 127.618 38.2022 135.315 38.2022 144.809C38.2022 154.303 45.8989 162 55.3932 162ZM141.079 144.809C141.079 150.99 136.068 156 129.888 156C123.707 156 118.697 150.99 118.697 144.809C118.697 138.628 123.707 133.618 129.888 133.618C136.068 133.618 141.079 138.628 141.079 144.809ZM147.079 144.809C147.079 154.303 139.382 162 129.888 162C120.393 162 112.697 154.303 112.697 144.809C112.697 135.315 120.393 127.618 129.888 127.618C139.382 127.618 147.079 135.315 147.079 144.809Z" fill="white"/>
</svg>
