<svg width="170" height="170" viewBox="0 0 170 170" fill="none" xmlns="http://www.w3.org/2000/svg">
<path fill-rule="evenodd" clip-rule="evenodd" d="M170 85C170 131.944 131.944 170 85 170C38.0558 170 0 131.944 0 85C0 38.0558 38.0558 0 85 0C131.944 0 170 38.0558 170 85ZM163.2 84.575C163.2 127.998 127.998 163.2 84.575 163.2C41.1516 163.2 5.95 127.998 5.95 84.575C5.95 41.1516 41.1516 5.95 84.575 5.95C127.998 5.95 163.2 41.1516 163.2 84.575ZM132.028 57.2284C133.591 55.6663 133.591 53.1337 132.028 51.5716C130.466 50.0095 127.934 50.0095 126.372 51.5716L68.425 109.518L43.6284 84.7216C42.0663 83.1595 39.5337 83.1595 37.9716 84.7216C36.4095 86.2837 36.4095 88.8163 37.9716 90.3784L65.5966 118.003C66.3467 118.754 67.3641 119.175 68.425 119.175C69.4859 119.175 70.5033 118.754 71.2534 118.003L132.028 57.2284Z" fill="#128737"/>
</svg>
