<svg width="188" height="170" viewBox="0 0 188 170" fill="none" xmlns="http://www.w3.org/2000/svg">
<path fill-rule="evenodd" clip-rule="evenodd" d="M148.989 76.4045C170.087 76.4045 187.191 59.3008 187.191 38.2022C187.191 17.1037 170.087 0 148.989 0C127.89 0 110.786 17.1037 110.786 38.2022C110.786 59.3008 127.89 76.4045 148.989 76.4045ZM126.067 41.2023H145.989V61.1236H151.989V41.2023H171.91V35.2023H151.989V15.2809H145.989V35.2023H126.067V41.2023ZM0 14.4607H20.5348L26.1693 38.8768L42.6144 110.139C38.3551 116.333 37.7476 121.786 39.6469 126.219C41.552 130.665 45.6363 133.229 48.6627 134.3L49.1481 134.471H49.6629H148.989V128.471H50.2137C48.2573 127.669 46.1124 126.074 45.1621 123.856C44.3169 121.884 44.107 118.663 47.3883 113.787H141.348H143.691L144.259 111.514L151.899 80.9523L146.078 79.4971L139.006 107.787H48.2292L32.8636 41.2022H106.966V35.2022H31.479L25.8445 10.7861L25.3079 8.46066H22.9213H0V14.4607ZM66.5843 152.809C66.5843 158.99 61.5739 164 55.3932 164C49.2126 164 44.2022 158.99 44.2022 152.809C44.2022 146.628 49.2126 141.618 55.3932 141.618C61.5739 141.618 66.5843 146.628 66.5843 152.809ZM72.5843 152.809C72.5843 162.303 64.8876 170 55.3932 170C45.8989 170 38.2022 162.303 38.2022 152.809C38.2022 143.315 45.8989 135.618 55.3932 135.618C64.8876 135.618 72.5843 143.315 72.5843 152.809ZM129.888 164C136.068 164 141.079 158.99 141.079 152.809C141.079 146.628 136.068 141.618 129.888 141.618C123.707 141.618 118.697 146.628 118.697 152.809C118.697 158.99 123.707 164 129.888 164ZM129.888 170C139.382 170 147.079 162.303 147.079 152.809C147.079 143.315 139.382 135.618 129.888 135.618C120.393 135.618 112.697 143.315 112.697 152.809C112.697 162.303 120.393 170 129.888 170Z" fill="#004D99"/>
</svg>
