<svg width="196" height="178" viewBox="0 0 196 178" fill="none" xmlns="http://www.w3.org/2000/svg">
<g filter="url(#filter0_d_1_12)">
<path d="M4 11.4607H26.9213L33.0925 38.2022M49.8427 110.787H145.348L152.989 80.2247M49.8427 110.787L33.0925 38.2022M49.8427 110.787C40.6742 123.011 48.5693 129.67 53.6629 131.471H152.989M33.0925 38.2022H110.966" stroke="white" stroke-width="6"/>
<circle cx="59.3932" cy="152.809" r="14.191" stroke="white" stroke-width="6"/>
<circle cx="133.888" cy="152.809" r="14.191" stroke="white" stroke-width="6"/>
<path fill-rule="evenodd" clip-rule="evenodd" d="M191.191 38.2022C191.191 59.3008 174.087 76.4045 152.989 76.4045C131.89 76.4045 114.786 59.3008 114.786 38.2022C114.786 17.1037 131.89 0 152.989 0C174.087 0 191.191 17.1037 191.191 38.2022ZM149.989 41.2023H130.067V35.2023H149.989V15.2809H155.989V35.2023H175.91V41.2023H155.989V61.1236H149.989V41.2023Z" fill="white"/>
</g>
<defs>
<filter id="filter0_d_1_12" x="0" y="0" width="195.191" height="178" filterUnits="userSpaceOnUse" color-interpolation-filters="sRGB">
<feFlood flood-opacity="0" result="BackgroundImageFix"/>
<feColorMatrix in="SourceAlpha" type="matrix" values="0 0 0 0 0 0 0 0 0 0 0 0 0 0 0 0 0 0 127 0" result="hardAlpha"/>
<feOffset dy="4"/>
<feGaussianBlur stdDeviation="2"/>
<feComposite in2="hardAlpha" operator="out"/>
<feColorMatrix type="matrix" values="0 0 0 0 0 0 0 0 0 0 0 0 0 0 0 0 0 0 0.25 0"/>
<feBlend mode="normal" in2="BackgroundImageFix" result="effect1_dropShadow_1_12"/>
<feBlend mode="normal" in="SourceGraphic" in2="effect1_dropShadow_1_12" result="shape"/>
</filter>
</defs>
</svg>
