<svg width="170" height="170" viewBox="0 0 170 170" fill="none" xmlns="http://www.w3.org/2000/svg">
<path fill-rule="evenodd" clip-rule="evenodd" d="M85 0C82.1833 1.31428e-05 79.9 2.28336 79.9 5.1C79.9 7.91664 82.1833 10.2 85 10.2V0ZM10.2 85C10.2 82.1833 7.91665 79.9 5.1 79.9C2.28335 79.9 0 82.1833 0 85C0 131.944 38.0558 170 85 170C131.944 170 170 131.944 170 85C170 38.0558 131.944 0 85 0V10.2012C125.881 10.4299 158.95 43.6406 158.95 84.575C158.95 125.651 125.651 158.95 84.575 158.95C43.6406 158.95 10.4299 125.881 10.2012 85L10.2 85Z" fill="#004D99"/>
</svg>
